<svg xmlns="http://www.w3.org/2000/svg" width="107" height="27" viewBox="0 0 107 27">
  <g fill="none" fill-rule="evenodd">
    <polygon fill="#ED1C24" fill-rule="nonzero" points="68.87 21.21 76.28 21.2 80.06 26.44 80.06 21.2 106.07 21.2 106.08 .13 68.86 .13 68.87 21.21"/>
    <polygon stroke="#ED1C24" stroke-width=".25" points="68.87 21.21 76.28 21.2 80.06 26.44 80.06 21.2 106.07 21.2 106.08 .13 68.86 .13 68.87 21.21"/>
    <path fill="#000" d="M0,13.89 L1.35,13.89 L1.35,8.72 L0,8.72 L0,13.9 L0,13.89 Z M0,7.76 L1.35,7.76 L1.35,6.47 L0,6.47 L0,7.72 L0,7.76 Z"/>
    <path fill="#000" fill-rule="nonzero" d="M3.56 12.33C3.51101954 12.7825724 3.66610661 13.2334525 3.98312353 13.5601346 4.30014045 13.8868166 4.74616102 14.0553707 5.2 14.02 5.53780527 14.0242003 5.87449671 13.9804304 6.2 13.89L6.2 12.83C6.00950198 12.9310835 5.79544991 12.9794178 5.58 12.97 5.07 12.97 4.95 12.56 4.95 12.11L4.95 9.72 6.15 9.72 6.15 8.72 4.95 8.72 4.95 7.25 3.6 7.68 3.6 8.68 2.6 8.68 2.6 9.68 3.6 9.68 3.6 12.31 3.56 12.33zM12.15 8.72L10.8 8.72 10.8 11.26C10.8 11.92 10.58 12.98 9.61 12.98 8.64 12.98 8.73 12.12 8.73 11.49L8.73 8.72 7.38 8.72 7.38 11.99C7.38 13.16 7.92 13.99 9.14 13.99 9.80627725 13.9865507 10.4350944 13.6813354 10.85 13.16L10.85 13.16 10.85 13.86 12.13 13.86 12.13 8.72 12.15 8.72zM20.52 8.72C20.0941327 8.59891263 19.652668 8.54162333 19.21 8.55 17.774507 8.64942109 16.6648008 9.84967389 16.6780501 11.2885447 16.6912994 12.7274154 17.8229196 13.9070299 19.26 13.98 19.7168328 13.9945706 20.1729441 13.9337558 20.61 13.8L20.55 12.69C20.2329656 12.8269627 19.8946627 12.9081554 19.55 12.93 18.6 12.93 18.15 12.19 18.15 11.24 18.15 10.29 18.68 9.6 19.52 9.6 19.8370796 9.59304853 20.1516154 9.65800701 20.44 9.79L20.56 8.72 20.52 8.72zM21.85 13.89L23.2 13.89 23.2 11.36C23.2 10.69 23.41 9.64 24.39 9.64 25.37 9.64 25.27 10.49 25.27 11.13L25.27 13.89 26.61 13.89 26.61 10.62C26.61 9.45 26.08 8.62 24.85 8.62 24.2040115 8.60481971 23.5928664 8.91226691 23.22 9.44L23.22 9.44 23.22 6.37 21.87 6.37 21.87 13.92 21.85 13.89z"/>
    <path fill="#000" d="M28.63,10.14 C29.0884742,9.78345676 29.6493661,9.58363902 30.23,9.57 C31.02,9.57 31.4,9.86 31.4,10.69 L30.65,10.69 C30.0551554,10.6633993 29.4615924,10.7657377 28.91,10.99 C28.3386019,11.254923 27.9861114,11.8410871 28.02,12.47 C28.0476964,12.9200507 28.2572795,13.3394716 28.6005602,13.6318261 C28.9438409,13.9241805 29.3912805,14.0643119 29.84,14.02 C30.4935085,14.0184802 31.0993422,13.6776987 31.44,13.12 L31.44,13.12 C31.4441833,13.3776546 31.4642212,13.6348074 31.5,13.89 L32.69,13.89 C32.69,13.49 32.63,13.13 32.62,12.74 C32.61,12.35 32.62,11.96 32.62,11.44 L32.62,10.77 C32.62,9.24 31.97,8.59 30.39,8.59 C29.7699061,8.59787519 29.1577441,8.73051029 28.59,8.98 L28.59,10.14 L28.63,10.14 Z M29.31,12.39 C29.31,11.6 30.21,11.5 30.81,11.5 L31.4,11.5 C31.4256107,11.8790514 31.3235127,12.2557578 31.11,12.57 C30.8897152,12.866591 30.5393602,13.0380413 30.17,13.03 C29.68,13.03 29.31,12.84 29.31,12.39 L29.31,12.39 Z"/>
    <path fill="#000" fill-rule="nonzero" d="M39.07,8.72 L37.72,8.72 L37.72,11.26 C37.72,11.92 37.51,12.98 36.53,12.98 C35.55,12.98 35.65,12.12 35.65,11.49 L35.65,8.72 L34.3,8.72 L34.3,11.99 C34.3,13.16 34.84,13.99 36.07,13.99 C36.7331021,13.9849775 37.3582178,13.679774 37.77,13.16 L37.77,13.16 L37.77,13.86 L39.05,13.86 L39.05,8.72 L39.07,8.72 Z"/>
    <path fill="#000" d="M41.88,11.29 C41.88,10.59 42.13,9.64 43,9.64 C43.87,9.64 44.21,10.56 44.21,11.29 C44.21,12.02 43.92,12.97 43.02,12.97 C42.12,12.97 41.88,11.97 41.88,11.29 Z M44.26,13.89 L45.57,13.89 L45.57,6.34 L44.22,6.34 L44.22,9.34 L44.22,9.34 C43.8517955,8.86142762 43.2732071,8.59266396 42.67,8.62 C41.08,8.62 40.49,9.89 40.49,11.32 C40.49,12.75 41.08,14.05 42.67,14.05 C43.2824107,14.0778483 43.8719506,13.8145947 44.26,13.34 L44.26,13.34 L44.26,13.92 L44.26,13.89 Z"/>
    <path fill="#000" fill-rule="nonzero" d="M47.31 13.89L48.66 13.89 48.66 11.36C48.66 10.69 48.87 9.64 49.85 9.64 50.83 9.64 50.72 10.49 50.72 11.13L50.72 13.89 52.07 13.89 52.07 10.62C52.07 9.45 51.54 8.62 50.31 8.62 49.6640115 8.60481971 49.0528664 8.91226691 48.68 9.44L48.68 9.44 48.68 6.37 47.33 6.37 47.33 13.92 47.31 13.89zM58.58 8.72L57.23 8.72 57.23 11.26C57.23 11.92 57.02 12.98 56.04 12.98 55.06 12.98 55.16 12.12 55.16 11.49L55.16 8.72 53.81 8.72 53.81 11.99C53.81 13.16 54.35 13.99 55.58 13.99 56.2434434 13.9864332 56.8691557 13.6809384 57.28 13.16L57.28 13.16 57.28 13.86 58.56 13.86 58.56 8.72 58.58 8.72zM60.35 13.89L61.7 13.89 61.7 11.99C61.7 11.25 61.7 9.88 62.79 9.88 62.9990439 9.86993708 63.2076384 9.90755248 63.4 9.99L63.4 8.63C63.2606928 8.61030301 63.1193072 8.61030301 62.98 8.63 62.2682993 8.69496509 61.6873878 9.22678542 61.56 9.93L61.56 9.93 61.56 8.72 60.37 8.72 60.37 13.9 60.35 13.89z"/>
    <path fill="#000" d="M64.61,13.89 L66,13.89 L66,8.72 L64.65,8.72 L64.65,13.9 L64.61,13.89 Z M64.61,7.76 L66,7.76 L66,6.47 L64.65,6.47 L64.65,7.72 L64.61,7.76 Z"/>
    <path fill="#FFF" d="M72.46 11.29C72.46 10.59 72.7 9.64 73.57 9.64 74.44 9.64 74.78 10.56 74.78 11.29 74.78 12.02 74.49 12.97 73.59 12.97 72.69 12.97 72.46 11.97 72.46 11.29zM74.83 13.89L76.14 13.89 76.14 6.34 74.79 6.34 74.79 9.34 74.79 9.34C74.4228973 8.86005291 73.8435469 8.59093527 73.24 8.62 71.65 8.62 71.06 9.89 71.06 11.32 71.06 12.75 71.65 14.05 73.24 14.05 73.8527152 14.079461 74.4429482 13.8158979 74.83 13.34L74.83 13.34 74.83 13.92 74.83 13.89zM78.84 10.79C78.8289836 10.4666713 78.9512004 10.153 79.1780627 9.92235671 79.4049249 9.69171341 79.7165334 9.56432905 80.04 9.57 80.79 9.57 81.04 10.14 81.13 10.79L78.84 10.79zM82.04 12.51C81.5214977 12.8296373 80.9287406 13.008843 80.32 13.03 79.9468856 13.0662151 79.5755125 12.9456586 79.2948102 12.6971991 79.0141079 12.4487397 78.8493538 12.0947511 78.84 11.72L82.42 11.72C82.42 9.91 81.88 8.59 79.96 8.59 78.34 8.59 77.55 9.83 77.55 11.33 77.4803086 12.0661772 77.7441167 12.7948531 78.268933 13.3157962 78.7937492 13.8367392 79.5243592 14.0951426 80.26 14.02 80.8802157 14.0416916 81.4948995 13.8966539 82.04 13.6L82.04 12.51 82.04 12.51z"/>
    <path fill="#FFF" fill-rule="nonzero" d="M87,8.78 C86.5193788,8.65801697 86.0258414,8.59422642 85.53,8.59 C84.47,8.59 83.53,9.08 83.53,10.2 C83.53,12.07 85.87,11.38 85.87,12.39 C85.87,12.9 85.33,13.03 84.99,13.03 C84.5263469,13.0209858 84.0710959,12.9046059 83.66,12.69 L83.58,13.79 C84.0769295,13.9369631 84.591825,14.0143657 85.11,14.02 C86.21,14.02 87.28,13.53 87.28,12.32 C87.28,10.45 84.94,10.97 84.94,10.15 C84.94,9.71 85.37,9.57 85.73,9.57 C86.1441933,9.57005186 86.5546748,9.64807727 86.94,9.8 L87.03,8.8 L87,8.78 Z"/>
    <path fill="#FFF" d="M88.68 13.89L90 13.89 90 8.72 88.65 8.72 88.65 13.9 88.68 13.89zM88.68 7.76L90 7.76 90 6.47 88.65 6.47 88.65 7.72 88.68 7.76zM94 12.85C93.23 12.85 92.86 11.98 92.86 11.28 92.86 10.58 93.15 9.64 94.06 9.64 94.97 9.64 95.19 10.36 95.19 11.25 95.19 12.14 94.85 12.85 94 12.85L94 12.85zM95.25 8.71L95.25 9.41 95.25 9.41C94.9134304 8.86257541 94.3011613 8.546814 93.66 8.59 92.11 8.59 91.46 10.03 91.46 11.28 91.46 12.53 92.05 13.89 93.58 13.89 94.2222959 13.9131887 94.8310513 13.6031393 95.19 13.07L95.19 13.07C95.19 13.97 95.12 15.07 93.63 15.07 93.1013454 15.0240198 92.5875823 14.8709117 92.12 14.62L92.01 15.77C92.577088 16.0057565 93.1858771 16.1247935 93.8 16.12 94.5538682 16.2242639 95.3130427 15.9693217 95.8511822 15.4311822 96.3893217 14.8930427 96.6442639 14.1338682 96.54 13.38L96.54 8.72 95.25 8.71z"/>
    <path fill="#FFF" fill-rule="nonzero" d="M98.3,13.89 L99.65,13.89 L99.65,11.36 C99.65,10.69 99.86,9.64 100.84,9.64 C101.82,9.64 101.71,10.49 101.71,11.13 L101.71,13.89 L103.06,13.89 L103.06,10.62 C103.06,9.45 102.53,8.62 101.3,8.62 C100.629603,8.58067423 99.9865465,8.89085423 99.6,9.44 L99.6,9.44 L99.6,8.72 L98.3,8.72 L98.3,13.9 L98.3,13.89 Z"/>
  </g>
</svg>
