<svg xmlns="http://www.w3.org/2000/svg" width="25" height="22" viewBox="0 0 25 22">
    <g fill="none" fill-rule="evenodd">
        <path d="M-.5-3h26v26h-26z"/>
        <path fill="#000" fill-rule="nonzero" d="M24.342 0H.658C.296 0 0 .3 0 .667v16c0 .366.296.666.658.666H5.92v4c0 .267.165.5.395.6.098.067.164.067.263.067a.645.645 0 0 0 .46-.2l4.474-4.467h12.83c.36 0 .657-.3.657-.666v-16A.664.664 0 0 0 24.342 0zm-.658 16H11.25a.645.645 0 0 0-.46.2l-3.553 3.533v-3.066A.664.664 0 0 0 6.579 16H1.316V1.333h22.368V16z"/>
    </g>
</svg>
