<?xml version="1.0" encoding="UTF-8"?>
<svg width="14px" height="16px" viewBox="0 0 14 16" version="1.1" xmlns="http://www.w3.org/2000/svg" xmlns:xlink="http://www.w3.org/1999/xlink">
    <!-- Generator: Sketch 55.2 (78181) - https://sketchapp.com -->
    <title>@</title>
    <desc>Created with Sketch.</desc>
    <g id="Working" stroke="none" stroke-width="1" fill="none" fill-rule="evenodd">
        <g id="Posts-Article-Page" transform="translate(-927.000000, -9766.000000)" fill="#202020" fill-rule="nonzero">
            <g id="Group-17" transform="translate(703.000000, 9763.000000)">
                <g id="Group-2">
                    <path d="M237.130779,14.6989247 L237.981506,15.8841099 C236.964333,16.8399044 236.53897,17.1839904 235.743725,17.6810036 C234.301189,18.5603345 232.766182,19 231.083223,19 C227.088507,19 224,16.3620072 224,12.0991637 C224,7.07168459 227.772787,3 232.451783,3 C235.780713,3 238,5.23655914 238,8.5818399 C238,12.1182796 235.910172,15.348865 233.616909,15.348865 C232.7107,15.348865 232.100396,14.8709677 231.915456,14.0489845 C231.268164,14.9091995 230.472919,15.348865 229.603699,15.348865 C228.031704,15.348865 227.033025,14.1063321 227.033025,12.1373955 C227.033025,9.1744325 228.900925,6.63201912 231.046235,6.63201912 C231.915456,6.63201912 232.414795,6.89964158 232.988111,7.77897252 L233.173052,7.01433692 L234.837517,7.01433692 L234.227213,10.0537634 C233.838838,12.0035842 233.709379,12.7873357 233.709379,13.2078853 C233.709379,13.5519713 233.857332,13.7431302 234.097754,13.7431302 C234.301189,13.7431302 234.597094,13.5519713 234.892999,13.2270012 C235.836196,12.1756272 236.446499,10.3596177 236.446499,8.63918757 C236.446499,6.11589008 234.874505,4.52927121 232.322325,4.52927121 C228.660502,4.52927121 225.516513,8.0083632 225.516513,12.041816 C225.516513,15.348865 227.698811,17.4898447 231.083223,17.4898447 C233.247028,17.4898447 235.318362,16.5340502 237.130779,14.6989247 Z M232.377807,10.0155317 L232.377807,9.9390681 C232.377807,8.96415771 231.878468,8.33333333 231.138705,8.33333333 C229.992074,8.33333333 228.937913,10.0919952 228.937913,12.0035842 C228.937913,13.0167264 229.38177,13.6475508 230.121532,13.6475508 C231.268164,13.6475508 232.377807,11.7933094 232.377807,10.0155317 Z" id="@"></path>
                </g>
            </g>
        </g>
    </g>
</svg>