<?xml version="1.0" encoding="UTF-8"?>
<svg width="9px" height="17px" viewBox="0 0 9 17" version="1.1" xmlns="http://www.w3.org/2000/svg" xmlns:xlink="http://www.w3.org/1999/xlink">
    <!-- Generator: Sketch 55.2 (78181) - https://sketchapp.com -->
    <title>Fill 1</title>
    <desc>Created with Sketch.</desc>
    <g id="Working" stroke="none" stroke-width="1" fill="none" fill-rule="evenodd">
        <g id="Posts-Article-Page" transform="translate(-704.000000, -9766.000000)" fill="#202020">
            <g id="Group-17" transform="translate(703.000000, 9763.000000)">
                <g id="Group-2">
                    <g id="Group-3">
                        <path d="M7.15691074,3 L10,3 C9.99904774,3.01916113 9.99720671,3.03835225 9.99720671,3.05751337 C9.99707975,3.95862621 9.99711149,4.85973905 9.99711149,5.76085189 C9.99711149,5.7726964 9.9959053,5.78469085 9.99730194,5.79638544 C10.0003492,5.8223834 9.98679537,5.83095943 9.9616558,5.8299399 C9.9459753,5.8293102 9.93029481,5.8299399 9.91458258,5.82999988 C9.35770287,5.83161913 8.80082317,5.83137924 8.24397521,5.83581718 C8.04009706,5.83743643 7.83825039,5.86205504 7.64087932,5.91432084 C7.31028755,6.00188031 7.09488709,6.19556064 7.03921181,6.52061016 C7.01061237,6.68778277 6.99931226,6.85903349 6.99766168,7.02860499 C6.99255124,7.55471144 6.99578891,8.08087785 6.99578891,8.60701428 C6.99578891,8.67499281 6.99585239,8.67505278 7.06714468,8.67505278 C8.02102018,8.67508277 8.97489569,8.67508277 9.9287712,8.67508277 L9.99374685,8.67508277 C9.99517523,8.68671738 9.99714323,8.69256468 9.99647665,8.69811211 C9.977495,8.8508614 9.95851335,9.0035807 9.93905557,9.15627001 C9.90874207,9.39408991 9.87757153,9.63181986 9.84770242,9.86966975 C9.81491304,10.1310288 9.78377425,10.3925977 9.75088965,10.6539567 C9.7180368,10.9153157 9.68366033,11.1764948 9.65055354,11.4377938 C9.64268155,11.4998351 9.64379252,11.499985 9.57545223,11.499985 C8.73610146,11.499985 7.89675069,11.499985 7.05739992,11.500015 C6.9960111,11.500015 6.99582065,11.5001349 6.99582065,11.5586678 C6.99575717,11.8224857 6.99578891,12.0863036 6.99578891,12.3500915 C6.99578891,14.8785809 6.99578891,17.4070104 6.99566194,19.9354399 C6.99566194,19.9569999 6.99369394,19.9785299 6.9926782,20 L3.10956595,20 L3.10956595,11.499985 L3.05192268,11.499985 C2.3835972,11.499985 1.71523999,11.499985 1.04691451,11.500075 C1.03126576,11.500075 1.01564875,11.5014543 1,11.502174 L1,8.67403326 C1.01882294,8.67439309 1.03764588,8.6750228 1.05646882,8.6750228 C1.71701753,8.67508277 2.37756624,8.67511276 3.03811496,8.6750228 C3.12343715,8.67499281 3.11140698,8.6793408 3.11159743,8.6063246 C3.11331149,7.93349608 3.10969291,7.2605776 3.11886632,6.58780906 C3.12219922,6.34429179 3.14895763,6.10041469 3.17755707,5.85800691 C3.21526644,5.53805503 3.29814451,5.227069 3.42149349,4.92642818 C3.58134564,4.53681854 3.81350582,4.19242798 4.13914586,3.90705009 C4.52217524,3.57141547 4.9772587,3.36088293 5.47417797,3.22429616 C5.98411142,3.08417103 6.50683685,3.02551819 7.03603762,3.00965553 C7.07641331,3.0084261 7.11663028,3.00329847 7.15691074,3" id="Fill-1"></path>
                    </g>
                </g>
            </g>
        </g>
    </g>
</svg>