<?xml version="1.0" encoding="UTF-8"?>
<svg width="16px" height="15px" viewBox="0 0 16 15" version="1.1" xmlns="http://www.w3.org/2000/svg" xmlns:xlink="http://www.w3.org/1999/xlink">
    <!-- Generator: Sketch 55.2 (78181) - https://sketchapp.com -->
    <title>in</title>
    <desc>Created with Sketch.</desc>
    <g id="Working" stroke="none" stroke-width="1" fill="none" fill-rule="evenodd">
        <g id="Posts-Article-Page" transform="translate(-851.000000, -9766.000000)" fill="#202020" fill-rule="nonzero">
            <g id="Group-17" transform="translate(703.000000, 9763.000000)">
                <g id="Group-2">
                    <path d="M151.662,5.673 L148.449,5.673 L148.449,3.174 L151.662,3.174 L151.662,5.673 Z M151.662,18 L148.449,18 L148.449,7.038 L151.662,7.038 L151.662,18 Z M163.367,18 L160.133,18 L160.133,11.238 C160.133,10.209 159.839,9.348 158.537,9.348 C157.046,9.348 156.836,10.398 156.836,11.868 L156.836,18 L153.602,18 L153.602,7.038 L156.878,7.038 L156.878,8.004 C157.403,7.374 158.432,6.765 159.965,6.765 C162.191,6.765 163.367,7.899 163.367,10.125 L163.367,18 Z" id="in"></path>
                </g>
            </g>
        </g>
    </g>
</svg>