<svg xmlns="http://www.w3.org/2000/svg" width="20" height="24" viewBox="0 0 20 24">
    <g fill="none" fill-rule="evenodd">
        <path d="M-3-1h26v26H-3z"/>
        <path fill="#000" fill-rule="nonzero" d="M16.3.306c-1.981 0-3.6 1.654-3.6 3.677 0 .48.087.947.253 1.37L6.11 9.23A3.54 3.54 0 0 0 3.7 8.272C1.719 8.272.1 9.926.1 11.95s1.619 3.677 3.6 3.677c.93 0 1.778-.362 2.419-.958l6.843 3.878a3.692 3.692 0 0 0-.262 1.369c0 2.023 1.619 3.676 3.6 3.676s3.6-1.653 3.6-3.676-1.619-3.677-3.6-3.677a3.56 3.56 0 0 0-2.71 1.264l-6.721-3.81a3.711 3.711 0 0 0 .431-1.743c0-.632-.153-1.222-.431-1.743l6.722-3.81A3.557 3.557 0 0 0 16.3 7.66c1.981 0 3.6-1.654 3.6-3.677S18.281.306 16.3.306zm0 1.226c1.333 0 2.4 1.09 2.4 2.451 0 1.36-1.067 2.451-2.4 2.451s-2.4-1.09-2.4-2.451 1.067-2.451 2.4-2.451zM3.7 9.498c1.333 0 2.4 1.09 2.4 2.45 0 1.362-1.067 2.452-2.4 2.452s-2.4-1.09-2.4-2.451 1.067-2.451 2.4-2.451zm12.6 7.966c1.333 0 2.4 1.09 2.4 2.45 0 1.362-1.067 2.452-2.4 2.452s-2.4-1.09-2.4-2.451 1.067-2.451 2.4-2.451z"/>
    </g>
</svg>
