<?xml version="1.0" encoding="UTF-8"?>
<svg width="19px" height="16px" viewBox="0 0 19 16" version="1.1" xmlns="http://www.w3.org/2000/svg" xmlns:xlink="http://www.w3.org/1999/xlink">
    <!-- Generator: Sketch 55.2 (78181) - https://sketchapp.com -->
    <title>Fill 1</title>
    <desc>Created with Sketch.</desc>
    <g id="Working" stroke="none" stroke-width="1" fill="none" fill-rule="evenodd">
        <g id="Posts-Article-Page" transform="translate(-775.000000, -9766.000000)" fill="#202020">
            <g id="Group-17" transform="translate(703.000000, 9763.000000)">
                <g id="Group-2">
                    <g id="Group-3" transform="translate(72.000000, 3.000000)">
                        <path d="M18.3153348,0.285124078 C18.0033109,1.19132573 17.4494883,1.87797004 16.6579108,2.38665772 C17.02922,2.35625307 17.3926943,2.28796781 17.7471422,2.18262464 C18.1038287,2.07660183 18.4548465,1.95194277 18.8078863,1.83558238 C18.8003403,1.84792309 18.7882088,1.87013637 18.7738388,1.89081154 C18.2812512,2.59830986 17.6867377,3.20872792 16.9896484,3.72002683 C16.9237558,3.76838811 16.9002872,3.8179298 16.9037172,3.89776884 C16.9635802,5.28361279 16.7316383,6.62563827 16.2676823,7.9297116 C15.7615912,9.35207691 15.0071302,10.6315046 13.9825638,11.7496803 C12.416198,13.459137 10.4864662,14.5356405 8.20268357,14.9899933 C7.64377009,15.1012385 7.07900751,15.1639079 6.5094068,15.1933825 C4.7649685,15.2835949 3.09032218,14.9930338 1.48738142,14.3035278 C1.00226763,14.0948446 0.535314912,13.8513213 0.0854762128,13.5757121 C0.0595885535,13.5599016 0.0344591102,13.5429108 0.0095101945,13.5257053 C0.00608016991,13.5233087 0.00575522021,13.5165839 1.44422088e-05,13.5010955 C2.09658989,13.6986541 3.98328395,13.1766242 5.65623331,11.9082137 C4.42355468,11.8369238 3.42050718,11.3358909 2.66236342,10.371205 C2.39947912,10.0367181 2.2038233,9.66474402 2.07445721,9.26046948 C2.3666592,9.27213056 2.64918491,9.28987257 2.93185504,9.2929488 C3.2173414,9.29602504 3.49679814,9.24455175 3.77553277,9.16431925 C2.88293206,8.95635144 2.13933883,8.51247932 1.56302249,7.80680528 C0.985334138,7.09945003 0.709415739,6.28557121 0.700317147,5.37940532 C0.985984038,5.48564275 1.25944726,5.59978538 1.54103423,5.68860273 C1.8226573,5.77745585 2.11536477,5.82091661 2.41984263,5.81623072 C1.60252193,5.23035099 1.05682307,4.46325956 0.833149363,3.48866533 C0.60990892,2.5158596 0.756641762,1.59223787 1.24208051,0.721877934 C1.25504239,0.71286385 1.26800427,0.703885535 1.28096615,0.694871451 C1.29017306,0.717943215 1.29414467,0.74534317 1.30934509,0.76351442 C2.27921163,1.92128773 3.4383433,2.84566063 4.79013405,3.53244802 C5.82928708,4.06041583 6.92487304,4.41811759 8.07945542,4.59163872 C8.42852361,4.64404203 8.78149119,4.67183546 9.13315898,4.70596021 C9.24689137,4.71701319 9.24728853,4.70985915 9.22732218,4.60093897 C9.02126796,3.47535882 9.23710677,2.44013414 9.93596526,1.52413146 C10.5929413,0.662928683 11.4737717,0.151701319 12.5566485,0.0290811536 C13.793732,-0.110994858 14.8718429,0.255363291 15.7658156,1.12304047 C15.8368351,1.19200537 15.8994782,1.20588419 15.9920528,1.18563827 C16.7837386,1.01236754 17.5313034,0.727565392 18.234314,0.327583277 C18.2530889,0.316923765 18.272622,0.307480438 18.3153348,0.285124078" id="Fill-1"></path>
                    </g>
                </g>
            </g>
        </g>
    </g>
</svg>