<svg xmlns="http://www.w3.org/2000/svg" width="26" height="16" viewBox="0 0 26 16">
    <g fill="none" fill-rule="evenodd">
        <path d="M-3-8h32v32H-3z"/>
        <path fill="#000" fill-rule="nonzero" d="M23.077 2.623h-6.264v-1.5h6.264v1.5zM12.643 8.775c.404.604.606 1.337.606 2.198 0 .89-.228 1.688-.691 2.393-.295.467-.661.86-1.1 1.178a4.33 4.33 0 0 1-1.756.753c-.676.135-1.408.203-2.196.203H.5V.5h7.512c1.894.03 3.236.559 4.03 1.598.475.637.71 1.401.71 2.29 0 .917-.238 1.651-.718 2.209-.268.312-.662.596-1.185.853.792.28 1.392.72 1.794 1.325zM4.087 6.414H7.38c.677 0 1.223-.124 1.644-.372.421-.248.631-.687.631-1.319 0-.698-.278-1.16-.835-1.384-.48-.155-1.092-.234-1.836-.234H4.087v3.309zm5.884 4.344c0-.779-.33-1.318-.99-1.607-.368-.164-.888-.248-1.555-.254H4.087v3.998h3.288c.675 0 1.198-.086 1.575-.264.68-.326 1.021-.949 1.021-1.873zm15.43-2.44c.076.49.11 1.203.096 2.133h-8.113c.045 1.08.432 1.835 1.165 2.268.442.27.978.403 1.606.403.662 0 1.201-.162 1.616-.493a2.36 2.36 0 0 0 .599-.737h2.973c-.077.637-.436 1.284-1.079 1.942-.997 1.044-2.395 1.568-4.19 1.568-1.484 0-2.791-.442-3.926-1.322-1.13-.884-1.699-2.316-1.699-4.304 0-1.864.51-3.29 1.534-4.284 1.027-.995 2.352-1.49 3.986-1.49.968 0 1.841.167 2.62.502a4.472 4.472 0 0 1 1.923 1.592c.458.64.752 1.38.889 2.222zm-2.927.28c-.054-.747-.313-1.312-.778-1.698-.462-.387-1.039-.582-1.727-.582-.75 0-1.327.208-1.738.616-.414.408-.671.962-.777 1.664h5.02z"/>
    </g>
</svg>
