<svg xmlns="http://www.w3.org/2000/svg" width="12" height="20" viewBox="0 0 12 20">
    <g fill="none" fill-rule="evenodd">
        <path d="M-10-6h32v32h-32z"/>
        <path fill="#000" fill-rule="nonzero" d="M11.086.504L8.447.5c-2.964 0-4.88 1.835-4.88 4.676v2.156H.916c-.23 0-.415.173-.415.387v3.124c0 .214.186.388.415.388h2.653v7.882c0 .214.185.387.415.387h3.46c.23 0 .416-.174.416-.387V11.23h3.101c.23 0 .415-.174.415-.388l.001-3.124a.375.375 0 0 0-.121-.274.43.43 0 0 0-.294-.113H7.86V5.504c0-.878.224-1.324 1.449-1.324h1.777c.23 0 .415-.174.415-.388v-2.9c0-.214-.185-.388-.414-.388z"/>
    </g>
</svg>
