<svg xmlns="http://www.w3.org/2000/svg" width="20" height="20" viewBox="0 0 20 20">
    <g fill="none" fill-rule="evenodd">
        <path d="M-6-6h32v32H-6z"/>
        <g fill="#000" fill-rule="nonzero">
            <path d="M14.257.5H5.743A5.25 5.25 0 0 0 .5 5.743v8.514A5.25 5.25 0 0 0 5.743 19.5h8.514a5.25 5.25 0 0 0 5.243-5.243V5.743A5.25 5.25 0 0 0 14.257.5zm3.557 13.757a3.562 3.562 0 0 1-3.557 3.557H5.743a3.561 3.561 0 0 1-3.557-3.557V5.743a3.562 3.562 0 0 1 3.557-3.557h8.514a3.562 3.562 0 0 1 3.557 3.557v8.514z"/>
            <path d="M10 5c-2.757 0-5 2.243-5 5s2.243 5 5 5 5-2.243 5-5-2.243-5-5-5zm0 8.278A3.282 3.282 0 0 1 6.722 10 3.282 3.282 0 0 1 10 6.722 3.282 3.282 0 0 1 13.278 10 3.282 3.282 0 0 1 10 13.278zM15.5 3.5a1.004 1.004 0 0 0-1 1c0 .263.107.52.294.707.185.186.443.293.706.293.264 0 .52-.107.707-.293a1.004 1.004 0 0 0 0-1.415A1.004 1.004 0 0 0 15.5 3.5z"/>
        </g>
    </g>
</svg>
