<svg xmlns="http://www.w3.org/2000/svg" width="21" height="20" viewBox="0 0 21 20">
    <g fill="none" fill-rule="evenodd">
        <path d="M-6-6h32v32H-6z"/>
        <g fill="#000" fill-rule="nonzero">
            <path d="M0 7h5v13H0zM19.551 7.567C18.586 6.522 17.308 6 15.721 6c-.586 0-1.117.071-1.596.214a3.632 3.632 0 0 0-1.212.6c-.33.258-.592.498-.786.719a5.93 5.93 0 0 0-.544.73V6.317H7l.014.663c.01.442.014 1.804.014 4.087 0 2.283-.01 5.26-.028 8.933h4.583v-7.635c0-.47.051-.842.153-1.119.195-.47.49-.863.885-1.18.395-.318.885-.477 1.47-.477.798 0 1.386.274 1.762.822.376.547.564 1.305.564 2.271V20H21v-7.842c0-2.016-.483-3.546-1.449-4.59zM2.513 0C1.766 0 1.16.237.696.71.232 1.181 0 1.778 0 2.5c0 .711.225 1.306.676 1.784C1.126 4.76 1.72 5 2.459 5h.027c.757 0 1.368-.239 1.831-.716.464-.478.692-1.072.683-1.784-.01-.721-.24-1.318-.69-1.79C3.86.235 3.262 0 2.514 0z"/>
        </g>
    </g>
</svg>
