<svg xmlns="http://www.w3.org/2000/svg" width="24" height="20" viewBox="0 0 24 20">
    <g fill="none" fill-rule="evenodd">
        <path d="M-4-6h32v32H-4z"/>
        <path fill="#010002" fill-rule="nonzero" d="M23.5 2.748a9.3 9.3 0 0 1-2.71.756A4.805 4.805 0 0 0 22.866.85a9.416 9.416 0 0 1-2.998 1.165A4.669 4.669 0 0 0 16.423.5c-2.606 0-4.718 2.149-4.718 4.797 0 .376.041.743.122 1.093-3.921-.2-7.398-2.11-9.725-5.013a4.824 4.824 0 0 0-.638 2.412c0 1.665.834 3.133 2.099 3.993a4.659 4.659 0 0 1-2.137-.602v.06c0 2.324 1.627 4.263 3.784 4.705a4.704 4.704 0 0 1-1.243.168c-.305 0-.6-.03-.889-.09.601 1.908 2.343 3.295 4.407 3.333a9.366 9.366 0 0 1-5.86 2.05c-.38 0-.756-.022-1.125-.065A13.176 13.176 0 0 0 7.732 19.5c8.68 0 13.424-7.311 13.424-13.652l-.016-.621a9.511 9.511 0 0 0 2.36-2.479z"/>
    </g>
</svg>
