<svg xmlns="http://www.w3.org/2000/svg" width="22" height="20" viewBox="0 0 22 20">
    <g fill="none" fill-rule="evenodd">
        <path d="M-5-6h32v32H-5z"/>
        <path fill="#000" fill-rule="nonzero" d="M18.784.504c-3.058-.1-5.128 1.61-6.212 5.13.558-.228 1.1-.344 1.63-.344 1.115 0 1.609.624 1.477 1.875-.066.757-.558 1.86-1.477 3.306-.923 1.448-1.612 2.171-2.07 2.171-.594 0-1.135-1.119-1.63-3.354-.165-.659-.461-2.336-.886-5.035C9.22 1.753 8.168.586 6.46.75c-.723.066-1.805.726-3.25 1.974A286.973 286.973 0 0 1 0 5.587l1.034 1.33c.988-.69 1.565-1.035 1.726-1.035.757 0 1.464 1.184 2.122 3.55.59 2.174 1.184 4.345 1.777 6.515.883 2.368 1.97 3.553 3.25 3.553 2.07 0 4.605-1.94 7.595-5.822 2.891-3.716 4.384-6.644 4.485-8.784.133-2.86-.936-4.325-3.205-4.39z"/>
    </g>
</svg>
