<svg xmlns="http://www.w3.org/2000/svg" width="26" height="22" viewBox="0 0 26 22">
    <g fill="none" fill-rule="evenodd">
        <path d="M0-2h26v26H0z"/>
        <path fill="#000" fill-rule="nonzero" d="M18.816 0c-2.347 0-4.499 1.102-5.836 2.884C11.644 1.069 9.525 0 7.177 0 3.2 0 .005 3.11.005 6.966v.065c-.033.583.065 2.462 1.63 5.12 2.054 3.498 5.77 6.77 11.02 9.72.097.064.228.129.358.129h.13c.066 0 .13-.032.196-.097 12.91-7.29 12.715-14.321 12.65-14.97C25.989 3.11 22.76 0 18.816 0zm-5.803 20.607C1.309 13.9 1.243 7.71 1.276 7.03v-.065-.032c0-3.11 2.64-5.67 5.869-5.67 2.216 0 4.238 1.198 5.249 3.11.097.227.326.356.586.356.229 0 .457-.13.587-.356 1.01-1.912 3.032-3.11 5.25-3.11 3.227 0 5.868 2.56 5.868 5.67v.065c.032.064.456 6.642-11.672 13.608z"/>
    </g>
</svg>
